<?xml version="1.0" encoding="utf-8"?>
<!-- Generator: Adobe Illustrator 18.1.1, SVG Export Plug-In . SVG Version: 6.00 Build 0)  -->
<svg version="1.1" id="Capa_1" xmlns="http://www.w3.org/2000/svg" xmlns:xlink="http://www.w3.org/1999/xlink" x="0px" y="0px"
	 viewBox="106 -106 512 512" enable-background="new 106 -106 512 512" xml:space="preserve">
<g>
	<g>
		<g>
			<g>
				<path fill="#FCFAFA" d="M527.5,242.4c0.2,0.2,0.3,0.5,0.5,0.7C527.8,242.9,527.6,242.7,527.5,242.4z"/>
				<path fill="#FCFAFA" d="M528.6,244.4c0.1,0.2,0.2,0.4,0.3,0.6C528.8,244.8,528.7,244.6,528.6,244.4z"/>
				<path fill="#FCFAFA" d="M525.1,239.3c-0.2-0.3-0.5-0.5-0.7-0.8C524.6,238.8,524.9,239.1,525.1,239.3z"/>
				<path fill="#FCFAFA" d="M522.4,236.7c0.3,0.2,0.5,0.5,0.8,0.7C522.9,237.2,522.7,236.9,522.4,236.7z"/>
				<path fill="#FCFAFA" d="M526.1,240.5c0.2,0.3,0.4,0.5,0.6,0.8C526.5,241,526.3,240.8,526.1,240.5z"/>
				<path fill="#FCFAFA" d="M529.5,246.4c-7.5-3-16.3-5.5-24.9-8c-16.3-4.7-30.4-8.8-38.1-16.2c-33.6-32.2-76.9-35.1-107.3-31.8
					c-53.5,5.8-98.4,32.4-106.5,44.4c-4.1,6-5.4,11.6-4.3,17.1c0.2,1.1,0.6,2.3,1.1,3.4c34.4,3.4,73,5.2,112.8,5.2
					c59.8,0,117.1-4.1,161.2-11.4c2.1-0.3,4-0.7,6-1c0.1,0,0.3-0.1,0.4-0.1C529.8,247.5,529.7,247,529.5,246.4z"/>
				<path fill="#FCFAFA" d="M520.1,234.9c0.3,0.2,0.5,0.4,0.8,0.6C520.6,235.3,520.4,235.1,520.1,234.9z"/>
			</g>
			<path fill="none" d="M534,35.8c-9.2-5.4-20.3-8-30.5-6.6c-20.4,2.8-70.3,29.3-114.3,52.6c-24.5,13-47.7,25.3-66.4,34
				c-12.2,5.7-28.7,10.1-46.2,14.8c-21,5.7-42.8,11.5-54.1,19c-4.3,2.8-7.3,6.4-9,9.7c-0.7-0.1-1.2-0.1-1.5-0.2
				c5.4,0.6,58.1,5.8,59.5,6.5c19.8-7.9,42.4-14,65.1-16.5c34.6-3.7,65.9,1.2,92.5,14.3c7.1-0.9,14.1-1.9,20.8-3.1
				c53.6-32.8,73.3-65.8,73.5-66.1c0.2-0.3,0.4-0.6,0.5-0.9C539.2,71.4,542.6,51.6,534,35.8z"/>
			<g>
				<path fill="#FFFFFF" d="M552.9,115.5c28.8-41.7,18.4-71.9,9.6-86.2c-3.7-6.1-8.5-11.5-14-16.1c2.1,2.5,4,5.1,5.7,7.8
					c8.8,14.3,19.2,44.5-9.6,86.2c-1.8,3-10.8,17.1-30.4,35.5c11.2-4.6,21.3-9.7,30.2-15.4C549.4,121.2,552,116.9,552.9,115.5z"/>
				<g>
					<path fill="#84BD93" d="M547-25.4c1.9,1.1,3.7,2.2,5.5,3.4C550.8-23.2,548.9-24.4,547-25.4z"/>
					<path fill="#84BD93" d="M553.8-21.2c1.6,1.1,3.3,2.3,4.8,3.6C557-18.9,555.4-20,553.8-21.2z"/>
					<path fill="#84BD93" d="M568.8-7.7c-3-3.5-6.3-6.7-9.9-9.7C562.5-14.5,565.8-11.2,568.8-7.7z"/>
					<path fill="none" d="M589.7,41.9c-2.6-19.9-9.8-36.6-20.9-49.6c-4.1-3.5-8.6-6.7-13.5-9.4C526.7-33,486.8-33,451.3-16.9
						c-12.8,5.8-32.1,16.1-54.4,28.1c-52.4,28.1-117.7,63.1-159.3,71.9c-56.6,12-92.7,24.2-97.9,47.6c-0.7,3.2-0.4,5.9,1.1,8.5
						c7.4,5.1,18.2,9.2,30.2,12.4c-1.5-14.3,6.9-29.8,21.5-39.4c14.6-9.6,38.3-16,61.3-22.2c16.4-4.4,31.9-8.6,42.2-13.4
						c18.1-8.4,41-20.6,65.2-33.4C411.3,16.6,458.8-8.6,483.5-12c27.4-3.8,56.4,9.8,70.7,33c8.8,14.3,19.2,44.5-9.6,86.2
						c-1.8,3-10.8,17.1-30.4,35.5c26.3-10.7,46.4-24.6,59.4-41.3C587.3,83.9,592.7,63.9,589.7,41.9z"/>
					<path fill="#84BD93" d="M136,135.6c0.2,0.2,0.3,0.3,0.5,0.5C136.3,135.9,136.1,135.7,136,135.6z"/>
					<path fill="#84BD93" d="M140.2,139c-0.3-0.2-0.7-0.5-1-0.7C139.5,138.5,139.8,138.7,140.2,139z"/>
				</g>
			</g>
			<g>
				<path fill="none" d="M378.9,302c-65.7-0.5-127.6-4.7-174.2-13.3c-8.2-1.5-15.6-3.1-22.5-4.7c45.9,35.5,104.4,53.5,174.1,53.5
					c79.2,0,127.4-17.8,165.1-44.2C487.6,297.7,437.7,302.4,378.9,302z"/>
				<path fill="#84BD93" d="M544.7,274.9c2.2-1.9,4.3-3.8,6.5-5.8C549,271.1,546.8,273,544.7,274.9z"/>
				<path fill="#84BD93" d="M529.6,287.3c2.2-1.7,4.4-3.4,6.6-5.2C534,283.9,531.8,285.6,529.6,287.3z"/>
				<path fill="#84BD93" d="M521.4,293.3c2.4-1.7,4.8-3.5,7.1-5.2C526.2,289.8,523.9,291.5,521.4,293.3z"/>
				<path fill="#84BD93" d="M537.3,281.1c2.1-1.8,4.2-3.5,6.3-5.3C541.6,277.6,539.5,279.4,537.3,281.1z"/>
			</g>
			<g>
				<path fill="#84BD93" d="M136.9,231.1c-0.5-0.3-1-0.6-1.4-0.8C136,230.5,136.4,230.8,136.9,231.1z"/>
				<path fill="#84BD93" d="M143.2,234.2c-1.2-0.5-2.2-1-3.2-1.5C141,233.2,142.1,233.7,143.2,234.2z"/>
				<path fill="#84BD93" d="M140,232.7c-0.9-0.4-1.7-0.9-2.4-1.3C138.3,231.9,139.1,232.3,140,232.7z"/>
				<path fill="#84BD93" d="M133.6,228.9c-0.4-0.3-0.7-0.6-1-0.8C132.8,228.4,133.2,228.6,133.6,228.9z"/>
				<path fill="#84BD93" d="M135,229.9c-0.4-0.2-0.7-0.5-1-0.7C134.3,229.4,134.6,229.7,135,229.9z"/>
				<path fill="#84BD93" d="M147,235.8c-1.1-0.4-2.1-0.9-3.1-1.3C144.8,234.9,145.8,235.3,147,235.8z"/>
				<path fill="#84BD93" d="M205.9,216.8c0.2-0.5,0.4-1,0.6-1.6C206.3,215.8,206.1,216.3,205.9,216.8z"/>
				<path fill="#84BD93" d="M204.5,221.8c0.1-0.5,0.2-1,0.4-1.5C204.7,220.8,204.6,221.3,204.5,221.8z"/>
				<path fill="#84BD93" d="M208,211.8c0.2-0.5,0.4-0.9,0.7-1.4C208.5,210.8,208.3,211.3,208,211.8z"/>
				<path fill="#84BD93" d="M151.5,237.4c-1.2-0.4-2.4-0.8-3.5-1.2C149.1,236.6,150.3,237,151.5,237.4z"/>
				<path fill="#84BD93" d="M157.5,239.4c-1.7-0.5-3.3-1-4.8-1.5C154.2,238.4,155.8,238.9,157.5,239.4z"/>
				<path fill="none" d="M203.8,225.5c0,0.3-0.1,0.6-0.2,0.8c-22.7,4.5-37.2,9.3-45.6,13.2c10.2,3.1,24.1,6.4,43.2,9.6
					c2.1,0.3,4.2,0.7,6.3,1c-1.3-2.9-2.4-5.9-3.1-9.2C203.2,235.8,203,230.7,203.8,225.5z"/>
			</g>
			<g>
				<path fill="#84BD93" d="M590.4,229.4c0.3-0.2,0.5-0.4,0.8-0.5C590.9,229.1,590.6,229.2,590.4,229.4z"/>
				<path fill="#84BD93" d="M591.4,228.7c0.3-0.2,0.5-0.4,0.7-0.6C591.9,228.3,591.7,228.5,591.4,228.7z"/>
				<path fill="#84BD93" d="M544.8,224.1c-0.4-0.4-0.8-0.9-1.1-1.3C544,223.2,544.4,223.6,544.8,224.1z"/>
				<path fill="none" d="M548.2,228.6c-0.1-0.2-0.3-0.4-0.5-0.6c3.2,4.8,5.5,9.9,6.5,15c9.2-2.3,16.3-4.5,21.7-6.5
					C568.9,233.9,559.8,231.2,548.2,228.6z"/>
				<path fill="#84BD93" d="M540.6,219.7c-0.5-0.5-0.9-0.9-1.4-1.3C539.7,218.8,540.2,219.2,540.6,219.7z"/>
				<path fill="#84BD93" d="M534.3,214.5c0.5,0.3,1,0.7,1.5,1.1C535.3,215.3,534.8,214.9,534.3,214.5z"/>
				<path fill="#84BD93" d="M576.2,236.3c2.3-0.9,4.3-1.7,6-2.4C580.5,234.7,578.5,235.5,576.2,236.3z"/>
				<path fill="#84BD93" d="M582.7,233.7c0.7-0.3,1.3-0.6,1.9-0.9C584,233.1,583.3,233.4,582.7,233.7z"/>
				<path fill="#84BD93" d="M588.9,230.4c0.4-0.3,0.8-0.5,1.1-0.7C589.7,229.9,589.3,230.1,588.9,230.4z"/>
				<path fill="#84BD93" d="M585.1,232.5c0.6-0.3,1.2-0.6,1.7-0.9C586.3,231.9,585.7,232.2,585.1,232.5z"/>
				<path fill="#84BD93" d="M587.1,231.5c0.6-0.3,1.2-0.7,1.7-1C588.2,230.8,587.7,231.1,587.1,231.5z"/>
			</g>
		</g>
		<path fill="#FFFFFF" d="M562.6,189.9c-20.2-5.1-45.4-9.4-74.2-12.6c48-12.8,83.8-33.4,104.9-60.7c17.5-22.6,24.8-49.6,21-78.1
			c-6.5-49.1-33.7-73.7-55.3-85.7c-35.9-20-83.1-20.2-126.4-0.7c-13.6,6.1-33.2,16.7-56,28.8C328.4,6.9,262.2,42.4,224,50.5
			C167.5,62.5,115.9,76.6,107,117c-2.5,11.2-0.1,21.9,6.8,31c16.3,21.3,56.7,30.6,84.5,34.5c-18.7,3.1-34.9,6.7-48,10.7
			c-18.7,5.7-43.6,15.6-43.6,35c0,4.5,1.3,8.7,3.9,12.6c5.2,9.3,21.1,34.5,52.4,59.7c35,28.2,97,61.8,193.4,61.8
			c140.9,0,193-54,248.2-111.3c0,0,14.1-12.1,13.4-22.9C617,211.7,600.4,199.5,562.6,189.9z M162.2,266.5c7.8,2,16.4,3.8,25.9,5.5
			c46.7,8.6,108.5,12.9,174.2,13.3c106.5,0.8,184.2-15.2,188.8-16.2c-42.8,39.2-93.3,68.3-194.8,68.3c-71,0-130.5-18.7-176.7-55.5
			C173.1,276.8,167.3,271.5,162.2,266.5z M133.6,132.9c-2.5-3.3-3.2-6.5-2.3-10.5c5.2-23.4,41.3-35.6,97.9-47.6
			C270.8,66,336.1,31,388.5,2.9c22.3-12,41.6-22.3,54.4-28.1c35.6-16,75.4-16.1,104.1-0.2c23.8,13.3,38.6,36.5,42.7,67.3
			c2.9,22-2.5,42.1-16,59.5c-13,16.8-33.1,30.6-59.4,41.3c19.5-18.4,28.6-32.6,30.4-35.5c28.8-41.7,18.4-71.9,9.6-86.2
			c-14.3-23.2-43.3-36.8-70.7-33C458.8-8.6,411.3,16.6,361,43.2c-24.2,12.9-47.1,25-65.2,33.4c-10.3,4.8-25.8,9-42.2,13.4
			c-22.9,6.2-46.7,12.6-61.3,22.2c-14.6,9.6-23,25.1-21.5,39.4C154.2,147.2,139.7,141,133.6,132.9z M450,160.3
			c-6.7,1.2-13.6,2.2-20.8,3.1c-26.6-13.1-57.9-18-92.5-14.3c-22.8,2.4-45.4,8.6-65.1,16.5c-1.3-0.7-54.1-5.9-59.5-6.5
			c-0.1,0-0.3-0.1-0.4-0.1c-9.2-1.7-15.2-5.2-16-9.3c-0.9-4.3,2.8-11.7,10.4-16.7c11.3-7.4,33-13.3,54.1-19
			c17.5-4.7,34-9.2,46.2-14.8c18.7-8.7,41.9-21,66.4-34c44-23.3,93.9-49.8,114.3-52.6c17.3-2.4,37.1,6.8,46.1,21.4
			c9.9,16.1,6.8,36.6-9.1,59.4c-0.2,0.3-0.4,0.6-0.5,0.9C523.2,94.5,503.5,127.5,450,160.3z M339.3,173.9
			c30.4-3.3,73.7-0.4,107.3,31.8c7.7,7.3,21.7,11.4,38.1,16.2c11.8,3.4,24.1,7,32.9,11.5c7.7,4,11.9,11.3,12.4,14.6
			c-0.1,0-0.3,0.1-0.4,0.1c-1.9,0.3-3.9,0.7-6,1c-44.1,7.4-101.4,11.4-161.2,11.4c-42.3,0-83.2-2-119.2-5.8
			c-4.7-3.4-12.7-10.8-14.5-19.3c-1.2-5.5,0.2-11,4.3-17.1C240.9,206.3,285.9,179.6,339.3,173.9z M211.4,205.6
			c-7.3,11.4-9.8,23.5-7.1,35.3c0.7,3.3,1.8,6.3,3.1,9.2c-2.1-0.3-4.2-0.7-6.3-1c-49.9-8.3-64.6-17.6-68.6-21
			C138,223.3,159.3,213.4,211.4,205.6z M529,211.3c-3.6-1.9-7.5-3.5-11.5-5.1c46,7.2,68.7,16.3,74.7,21.8c-2.9,2.6-12,8.5-37.9,14.8
			C551.8,230.7,542.2,218.2,529,211.3z"/>
	</g>
</g>
</svg>
