<?xml version="1.0" encoding="UTF-8" standalone="no"?>
<svg
   xmlns:dc="http://purl.org/dc/elements/1.1/"
   xmlns:cc="http://creativecommons.org/ns#"
   xmlns:rdf="http://www.w3.org/1999/02/22-rdf-syntax-ns#"
   xmlns:svg="http://www.w3.org/2000/svg"
   xmlns="http://www.w3.org/2000/svg"
   viewBox="0 0 400 400"
   height="400"
   width="400"
   xml:space="preserve"
   id="svg2"
   version="1.1"><metadata
     id="metadata8"><rdf:RDF><cc:Work
         rdf:about=""><dc:format>image/svg+xml</dc:format><dc:type
           rdf:resource="http://purl.org/dc/dcmitype/StillImage" /></cc:Work></rdf:RDF></metadata><defs
     id="defs6"><clipPath
       id="clipPath18"
       clipPathUnits="userSpaceOnUse"><path
         id="path16"
         d="M 0,300 H 300 V 0 H 0 Z" /></clipPath></defs><g
     transform="matrix(1.3333333,0,0,-1.3333333,0,400)"
     id="g10"><g
       id="g12"><g
         clip-path="url(#clipPath18)"
         id="g14"><g
           transform="translate(209.3672,180.876)"
           id="g20"><path
             id="path22"
             style="fill:#ffffff;fill-opacity:1;fill-rule:nonzero;stroke:none"
             d="m 0,0 c -0.394,-1.331 -2.357,-2.253 -4.63,-3.321 -3.279,-1.541 -7.359,-3.458 -9.313,-7.964 -3.666,-8.453 -14.705,-8.009 -21.319,-7.126 0.682,1.215 1.167,2.683 1.463,4.428 0.59,3.481 4.187,6.142 7.664,8.716 3.778,2.796 7.684,5.688 8.124,9.997 0.289,2.828 -0.968,5.762 -3.84,8.972 -2.077,2.32 -1.845,4.943 -1.577,7.98 0.62,7.019 -0.15,12.511 -15.804,14.056 -9.029,0.893 -9.454,4.061 -9.828,6.856 -0.086,0.643 -0.188,1.352 -0.404,2.033 5.396,3.078 7.28,2.579 10.687,1.645 3.231,-0.884 7.657,-2.093 16.34,-0.98 9.214,1.178 9.746,-0.849 10.804,-4.89 0.808,-3.087 1.814,-6.928 6.42,-9.943 3.887,-2.543 3.269,-4.667 2.037,-8.898 C -4.395,17.375 -5.91,12.165 -1.976,5.854 -0.332,3.216 0.352,1.191 0,0 m -50.493,-17.847 c 2.009,1.68 2.547,3.898 2.845,6.12 0.265,1.977 0.426,2.195 1.13,2.426 2.749,0.902 4.431,2.172 5.14,3.884 1.012,2.443 -0.222,4.882 -1.414,7.24 -1.805,3.569 -2.773,5.889 -0.045,8.52 2.377,2.292 2.836,5.388 1.228,8.283 -2.37,4.265 -9.421,7.927 -15.32,6.438 -5.46,-1.376 -7.494,1.694 -9.842,5.25 -1.149,1.74 -2.509,3.795 -4.435,4.938 4.353,2.84 8.697,5.304 12.21,6.69 4.05,1.6 5.347,1.612 5.711,1.55 0.108,-0.288 0.199,-0.965 0.261,-1.429 0.589,-4.404 2.16,-9.195 13.399,-10.305 12.958,-1.279 12.662,-4.639 12.213,-9.725 -0.291,-3.29 -0.653,-7.386 2.581,-10.999 2.051,-2.291 3.007,-4.275 2.841,-5.897 -0.261,-2.552 -3.303,-4.804 -6.525,-7.189 -3.923,-2.903 -8.369,-6.193 -9.227,-11.264 -0.393,-2.315 -1.156,-3.83 -2.336,-4.633 -2.165,-1.47 -6.116,-0.792 -10.415,0.102 m -41.132,-2.458 c 0.531,0.637 1.017,1.286 1.442,1.919 2.706,4.028 3.779,8.207 2.944,11.468 -0.845,3.296 -2.917,5.566 -5.992,6.565 -3.983,1.295 -9.215,0.248 -14.453,-2.737 0.166,0.413 0.329,0.808 0.492,1.186 4.688,6.363 9.322,9.845 13.774,10.342 3.482,0.386 6.999,-1.017 10.753,-4.292 3.3,-2.878 3.024,-4.31 2.608,-6.479 -0.374,-1.951 -0.886,-4.623 1.531,-7.866 1.035,-1.388 0.913,-2.37 0.731,-2.989 -0.695,-2.37 -4.187,-4.64 -7.401,-5.881 -2.143,-0.277 -4.312,-0.658 -6.429,-1.236 m -18.159,10.949 c 5.448,4.337 11.54,6.427 15.317,5.2 1.755,-0.571 2.852,-1.799 3.353,-3.755 0.536,-2.094 -0.379,-5.253 -2.389,-8.244 -1.951,-2.904 -4.572,-5.111 -6.442,-5.451 -0.418,-0.016 -0.841,-0.045 -1.251,-0.045 h -0.001 c -5.074,0.001 -7.871,1.209 -8.432,1.794 -1.753,1.833 -1.306,6.166 -0.155,10.501 M -85.442,22.2 c 2.303,0 4.185,-1.605 5.753,-4.906 1.982,-4.171 6.031,-5.34 9.602,-6.37 2.632,-0.76 5.117,-1.478 6.833,-3.225 1.741,-1.773 1.016,-4.475 -0.312,-8.737 -1.02,-3.271 -2.175,-6.977 -1.693,-10.775 0.214,-1.677 -0.014,-2.899 -0.697,-3.734 -1.552,-1.895 -5.781,-2.382 -10.495,-2.742 1.12,1.123 2.045,2.444 2.494,3.973 0.449,1.532 0.578,3.904 -1.362,6.507 -1.364,1.83 -1.143,2.981 -0.809,4.723 0.615,3.205 0.745,6.188 -3.908,10.246 -4.646,4.053 -9.172,5.779 -13.824,5.252 -2.083,-0.231 -4.162,-0.936 -6.226,-2.099 5.202,7.246 10.711,11.887 14.644,11.887 m 15.334,5.909 c 2.506,-3.796 5.938,-8.995 14.157,-6.924 4.051,1.025 9.248,-1.626 10.844,-4.501 0.745,-1.338 0.587,-2.407 -0.507,-3.462 -4.991,-4.814 -2.438,-9.863 -0.747,-13.204 0.748,-1.48 1.596,-3.158 1.288,-3.904 -0.106,-0.255 -0.579,-0.922 -2.692,-1.614 -3.226,-1.06 -3.6,-3.849 -3.847,-5.694 -0.336,-2.498 -0.612,-4.475 -6.341,-5.247 -1.253,0.172 -2.517,0.292 -3.781,0.332 0.522,1.372 0.676,2.975 0.444,4.801 -0.373,2.934 0.601,6.058 1.542,9.079 1.403,4.503 2.854,9.16 -0.652,12.731 -2.452,2.497 -5.705,3.436 -8.578,4.265 -3.16,0.912 -5.889,1.699 -7.097,4.244 -2.284,4.807 -5.228,6.541 -7.706,7.028 2.024,1.663 4.319,3.434 6.742,5.19 3.383,1.905 4.381,0.742 6.931,-3.12 M 0.665,20.443 c 1.255,4.312 2.677,9.198 -3.688,13.364 -3.317,2.169 -4.008,4.811 -4.741,7.608 -1.451,5.546 -3.392,9.355 -15.18,7.844 -7.896,-1.009 -11.711,0.033 -14.778,0.872 -4.527,1.239 -7.528,1.718 -14.863,-2.702 -1.697,0.292 -4.063,-0.259 -7.88,-1.766 -10.042,-3.966 -25.411,-15.457 -31.392,-21.478 -6.975,-4.138 -13.788,-13.956 -18.183,-22.681 -0.878,-1.818 -8.401,-17.94 -2.479,-24.126 1.788,-1.868 6.126,-3.028 11.322,-3.029 h 0.001 c 0.41,0 1.705,0.058 1.727,0.061 2.914,0.137 5.878,0.597 8.841,1.412 4.182,1.152 8.79,1.486 12.855,1.779 4.583,0.333 8.718,0.638 11.749,1.998 4.23,0.841 8.975,-0.153 13.569,-1.122 3.096,-0.653 6.095,-1.286 8.794,-1.286 1.703,0 3.284,0.258 4.696,0.916 2.09,-0.343 5.735,-0.944 9.792,-0.944 7.059,0 15.367,1.817 18.9,9.96 1.352,3.119 4.398,4.551 7.344,5.936 2.883,1.354 5.864,2.754 6.765,5.809 0.714,2.418 -0.054,5.31 -2.417,9.101 -2.989,4.795 -1.853,8.699 -0.754,12.474" /></g><g
           transform="translate(200.9453,119.6855)"
           id="g24"><path
             id="path26"
             style="fill:#ffffff;fill-opacity:1;fill-rule:nonzero;stroke:none"
             d="m 0,0 c -0.883,-0.748 -1.67,-1.33 -1.914,-1.509 l -0.102,-0.068 c -1.945,-1.404 -4.061,-2.633 -6.29,-3.65 -4.301,-1.964 -8.215,-4.783 -11.67,-7.27 -2.594,-1.869 -5.046,-3.635 -7.171,-4.673 -0.364,-0.177 -0.798,-0.37 -1.26,-0.576 -1.28,-0.569 -2.73,-1.215 -3.735,-1.955 -3.4,-2.503 -6.178,-6.036 -8.628,-9.153 -2.294,-2.918 -4.461,-5.675 -6.615,-6.952 l -0.365,-0.214 c -1.355,-0.795 -3.208,-1.884 -4.296,-3.111 -6.134,-6.921 -11.582,-10.285 -16.653,-10.285 -1.719,0 -3.411,0.412 -5.032,1.225 -1.701,0.852 -3.508,1.266 -5.529,1.266 -2.413,0 -4.704,-0.603 -6.724,-1.136 -1.559,-0.41 -3.032,-0.797 -4.178,-0.797 h -0.008 c -1.011,0 -2.88,0.016 -3.738,6.131 -1.032,7.365 -5.539,10.388 -9.16,12.817 -3.661,2.455 -5.497,3.686 -4.148,8.133 1.599,5.268 -0.096,8.86 -1.458,11.746 -1.781,3.776 -2.676,5.673 5.148,10.679 7.378,4.722 9.994,8.49 11.904,11.241 2.057,2.962 3.09,4.448 9.096,5.568 0.027,0.005 2.683,0.504 4.088,1.855 0.859,0.824 3.94,1.846 5.1,2.231 8.847,2.936 25.097,4.036 33.935,3.64 1.481,-0.07 3.785,0.024 5.436,0.102 0.382,0.019 0.772,0.027 1.168,0.027 6.113,0 14.692,-2.125 22.912,-5.67 0.04,-0.018 4.017,-1.829 7.922,-4.488 C 2.708,11.973 5.302,8.869 5.152,6.641 5.099,5.855 3.77,3.197 0,0 m 0.287,18.461 c -4.189,2.851 -8.349,4.746 -8.557,4.84 -9.465,4.082 -18.979,6.296 -25.884,5.98 -1.56,-0.073 -3.704,-0.162 -5.071,-0.102 -1.211,0.053 -2.547,0.081 -3.972,0.081 -9.435,0 -23.285,-1.227 -31.401,-3.92 -3.716,-1.233 -5.508,-2.085 -6.61,-3.144 -0.292,-0.28 -1.461,-0.693 -2.045,-0.805 -7.26,-1.355 -9.158,-3.626 -11.654,-7.221 -1.814,-2.611 -4.072,-5.861 -10.776,-10.152 -10.011,-6.408 -9.053,-10.573 -6.608,-15.756 1.233,-2.614 2.398,-5.084 1.247,-8.877 -2.209,-7.28 2.018,-10.115 5.747,-12.617 3.267,-2.191 6.644,-4.456 7.428,-10.049 0.576,-4.112 2.003,-9.577 7.707,-9.577 1.664,0 3.38,0.452 5.195,0.929 1.874,0.493 3.813,1.004 5.707,1.004 1.383,0 2.606,-0.275 3.736,-0.843 2.182,-1.093 4.478,-1.648 6.825,-1.648 6.282,0 12.709,3.805 19.646,11.632 0.667,0.751 2.269,1.692 3.328,2.314 l 0.378,0.223 c 2.798,1.658 5.19,4.7 7.721,7.921 2.405,3.059 4.893,6.222 7.856,8.403 0.657,0.485 1.951,1.061 2.99,1.524 0.51,0.226 0.991,0.441 1.389,0.636 2.43,1.187 5.016,3.049 7.753,5.02 3.304,2.38 7.049,5.076 10.993,6.877 2.441,1.114 4.761,2.458 6.899,3.995 l 0.103,0.068 c 0.11,0.079 1.109,0.802 2.23,1.751 3.874,3.286 6.386,6.898 6.556,9.424 0.258,3.844 -2.721,7.911 -8.856,12.089" /></g><g
           transform="translate(174.7432,119.626)"
           id="g28"><path
             id="path30"
             style="fill:#ffffff;fill-opacity:1;fill-rule:nonzero;stroke:none"
             d="m 0,0 c -13.464,-4.07 -18.108,-9.73 -21.841,-14.279 -2.058,-2.51 -3.837,-4.677 -6.791,-6.193 -3.905,-2.004 -7.975,-3.019 -12.097,-3.019 -8.347,0 -15.7,4.299 -18.296,10.697 -2.385,5.878 -0.339,12.38 5.762,18.308 9.249,8.983 16.021,10.195 21.425,10.195 3.359,0 6.862,-0.539 10.571,-1.109 2.671,-0.412 5.432,-0.836 8.451,-1.123 C -8.58,13.076 5.501,7.348 5.873,3.619 5.955,2.794 4.467,1.351 0,0 m -12.438,17.46 c -2.904,0.275 -5.606,0.691 -8.22,1.093 -3.865,0.594 -7.516,1.156 -11.18,1.156 -8.798,0 -16.039,-3.388 -24.212,-11.326 -7.241,-7.034 -9.677,-15.302 -6.682,-22.681 3.203,-7.891 12.044,-13.193 22.003,-13.193 4.763,0 9.448,1.164 13.923,3.461 3.694,1.894 5.813,4.478 8.057,7.214 3.565,4.344 7.606,9.269 19.907,12.988 6.105,1.845 9.03,4.484 8.696,7.845 -0.746,7.457 -18.85,13.116 -22.292,13.443" /></g><g
           transform="translate(133.957,122.6201)"
           id="g32"><path
             id="path34"
             style="fill:#ffffff;fill-opacity:1;fill-rule:nonzero;stroke:none"
             d="m 0,0 c -8.136,-0.682 -14.33,-6.315 -13.809,-12.56 0.234,-2.742 1.731,-5.273 4.218,-7.128 0.886,-0.661 2.14,-0.478 2.799,0.408 0.66,0.885 0.478,2.137 -0.408,2.799 -1.101,0.821 -2.45,2.227 -2.622,4.257 -0.333,3.976 4.318,7.748 10.157,8.238 5.835,0.489 11.054,-2.454 11.388,-6.43 0.243,-2.918 -2.219,-5.869 -6.127,-7.344 -1.034,-0.389 -1.555,-1.544 -1.165,-2.577 0.301,-0.801 1.063,-1.295 1.871,-1.295 0.235,0 0.473,0.042 0.706,0.13 5.684,2.146 9.1,6.627 8.701,11.42 C 15.184,-3.839 8.128,0.684 0,0" /></g></g></g></g></svg>