<?xml version="1.0"?>
<svg xmlns="http://www.w3.org/2000/svg" xmlns:xlink="http://www.w3.org/1999/xlink" version="1.1" id="Layer_1" x="0px" y="0px" viewBox="0 0 511.999 511.999" style="enable-background:new 0 0 511.999 511.999;" xml:space="preserve" width="512px" height="512px" class=""><g><path style="fill:#E6EFF6" d="M511.999,230.469c-36.574,0-36.574-33.536-73.147-33.536s-36.574,33.536-73.147,33.536  c-36.572,0-36.572-33.536-73.144-33.536s-36.571,33.536-73.141,33.536c-36.569,0-36.569-33.536-73.138-33.536  c-36.57,0-36.57,33.536-73.141,33.536S36.57,196.933,0,196.933v84.596c36.571,0,36.571,33.536,73.141,33.536  s36.57-33.536,73.141-33.536c36.569,0,36.569,33.536,73.138,33.536c36.571,0,36.571-33.536,73.141-33.536  c36.572,0,36.572,33.536,73.144,33.536c36.574,0,36.574-33.536,73.147-33.536s36.574,33.536,73.147,33.536" data-original="#319FBC" class="active-path" data-old_color="#e6eff6"/><path style="fill:#FFFFFF" d="M511.999,145.873c-36.574,0-36.574-33.536-73.147-33.536s-36.574,33.536-73.147,33.536  c-36.572,0-36.572-33.536-73.144-33.536s-36.571,33.536-73.141,33.536c-36.569,0-36.569-33.536-73.138-33.536  c-36.57,0-36.57,33.536-73.141,33.536S36.57,112.337,0,112.337v84.596c36.571,0,36.571,33.536,73.141,33.536  s36.57-33.536,73.141-33.536c36.569,0,36.569,33.536,73.138,33.536c36.571,0,36.571-33.536,73.141-33.536  c36.572,0,36.572,33.536,73.144,33.536c36.574,0,36.574-33.536,73.147-33.536s36.574,33.536,73.147,33.536" data-original="#2690A8" class="" data-old_color="#ffffff"/><path style="fill:#CDDFED" d="M511.999,315.066c-36.574,0-36.574-33.536-73.147-33.536s-36.574,33.536-73.147,33.536  c-36.572,0-36.572-33.536-73.144-33.536s-36.571,33.536-73.141,33.536c-36.569,0-36.569-33.536-73.138-33.536  c-36.57,0-36.57,33.536-73.141,33.536S36.57,281.529,0,281.529v84.596c36.571,0,36.571,33.536,73.141,33.536  s36.57-33.536,73.141-33.536c36.569,0,36.569,33.536,73.138,33.536c36.571,0,36.571-33.536,73.141-33.536  c36.572,0,36.572,33.536,73.144,33.536c36.574,0,36.574-33.536,73.147-33.536s36.574,33.536,73.147,33.536" data-original="#40B3DB" class="" data-old_color="#cddfed"/></g> </svg>
